# xmcd CD database file
#
# Track frame offsets:
#	150
#	13495
#	28763
#	38304
#	55133
#	69686
#	81450
#	94894
#	104358
#	117576
#	130127
#	143189
#	151995
#	166089
#	180645
#	194441
#
# Disc length: 2800 seconds
#
# Revision: 0
# Processed by: cddbd v1.5.2PL0 Copyright (c) Steve Scherf et al.
# Submitted via: CDex 1.51
#
DISCID=de0aee10
DTITLE=Lance James And Joey Lane - Till Each Tear Becomes A Rose
DYEAR=1900
DGENRE=Country
TTITLE0=Till A Tear Becomes A Rose
TTITLE1=Love Is No Excuse
TTITLE2=Shame About That
TTITLE3=The Way I See You
TTITLE4=Don't Tell Me What To Do
TTITLE5=I Heard The Blue Bird Sing
TTITLE6=Memory Number One
TTITLE7=Bartender
TTITLE8=Little Darlin
TTITLE9=Stuck On You (Leggedy Legs)
TTITLE10=I'll See Him Through
TTITLE11=Mooifontein
TTITLE12=Cry Cry Again (Duet With Danel)
TTITLE13=Hello Sadness
TTITLE14=Mockingbird Song
TTITLE15=Tien Duisend Myl
EXTD=
EXTT0=
EXTT1=
EXTT2=
EXTT3=
EXTT4=
EXTT5=
EXTT6=
EXTT7=
EXTT8=
EXTT9=
EXTT10=
EXTT11=
EXTT12=
EXTT13=
EXTT14=
EXTT15=
PLAYORDER=
